<?xml version="1.0" encoding="UTF-8" standalone="no"?>
<svg
   version="1.1"
   width="998.68799"
   height="301.66064"
   viewBox="0 0 998.68799 301.66064"
   id="svg10"
   xmlns="http://www.w3.org/2000/svg"
   xmlns:svg="http://www.w3.org/2000/svg">
  <defs
     id="defs10" />
  <g
     transform="matrix(0.66666667,0,0,0.66666667,-0.65600202,79.103164)"
     id="g9">
    <svg
       viewBox="0 0 396 80"
       data-background-color="#ffffff"
       preserveAspectRatio="xMidYMid"
       height="303"
       width="1500"
       version="1.1"
       id="svg9">
      <g
         id="tight-bounds"
         transform="translate(0.24,-0.14842325)">
        <svg
           viewBox="0 0 395.52 80.296847"
           height="80.296844"
           width="395.51999"
           version="1.1"
           id="svg8">
          <g
             id="g8">
            <svg
               viewBox="0 0 558.90963 113.46754"
               height="80.296844"
               width="395.51999"
               version="1.1"
               id="svg7">
              <g
                 transform="translate(163.38963,6.6704382)"
                 id="g3">
                <svg
                   viewBox="0 0 395.52 100.12666"
                   height="100.12666"
                   width="395.51999"
                   version="1.1"
                   id="svg3">
                  <g
                     id="textblocktransform">
                    <svg
                       viewBox="0 0 395.52 100.12666"
                       height="100.12666"
                       width="395.51999"
                       id="textblock"
                       version="1.1">
                      <g
                         id="g2">
                        <svg
                           viewBox="0 0 395.52 100.12666"
                           height="100.12666"
                           width="395.51999"
                           version="1.1"
                           id="svg2">
                          <g
                             id="g1">
                            <svg
                               width="395.51999"
                               viewBox="4.95 -37.85 150.69 38.15"
                               height="100.12666"
                               data-palette-color="#001f3f"
                               version="1.1"
                               id="svg1">
                              <path
                                 d="m 19.6,-30.95 q -4.8,0 -7.22,2.17 -2.43,2.18 -2.43,6.33 v 0 4 h 16 v 4.3 h -16 V 0 h -5 v -22.5 q 0,-6.05 3.83,-9.48 3.82,-3.42 10.67,-3.42 v 0 q 3,0 5.6,0.67 2.6,0.68 4.5,1.98 v 0 l -1.65,4.15 q -3.35,-2.35 -8.3,-2.35 z M 33.85,0 v -26.5 h 4.8 V 0 Z m 2.4,-31.6 q -1.4,0 -2.33,-0.9 Q 33,-33.4 33,-34.7 v 0 q 0,-1.3 0.92,-2.23 0.93,-0.92 2.33,-0.92 v 0 q 1.4,0 2.32,0.87 0.93,0.88 0.93,2.18 v 0 q 0,1.35 -0.93,2.28 -0.92,0.92 -2.32,0.92 z M 55.85,0.3 Q 52,0.3 49.9,-1.83 47.8,-3.95 47.8,-7.8 v 0 -29.3 h 4.8 v 28.9 q 0,2.15 1.02,3.3 1.03,1.15 3.08,1.15 v 0 q 1.25,0 2.35,-0.5 v 0 l 0.25,3.95 q -1.65,0.6 -3.45,0.6 z m 41.14,-27.05 q 5,0 7.93,2.9 2.92,2.9 2.92,8.6 v 0 V 0 h -4.8 v -14.7 q 0,-3.85 -1.77,-5.8 -1.78,-1.95 -5.08,-1.95 v 0 q -3.65,0 -5.8,2.27 -2.15,2.28 -2.15,6.53 v 0 V 0 h -4.8 v -14.7 q 0,-3.85 -1.77,-5.8 -1.78,-1.95 -5.08,-1.95 v 0 q -3.65,0 -5.8,2.27 -2.15,2.28 -2.15,6.53 v 0 V 0 h -4.8 v -26.5 h 4.6 v 3.95 q 1.45,-2.05 3.8,-3.13 2.35,-1.07 5.35,-1.07 v 0 q 3.1,0 5.5,1.25 2.4,1.25 3.7,3.65 v 0 q 1.5,-2.3 4.18,-3.6 2.67,-1.3 6.02,-1.3 z M 116.69,0 v -26.5 h 4.8 V 0 Z m 2.4,-31.6 q -1.4,0 -2.32,-0.9 -0.93,-0.9 -0.93,-2.2 v 0 q 0,-1.3 0.93,-2.23 0.92,-0.92 2.32,-0.92 v 0 q 1.4,0 2.33,0.87 0.92,0.88 0.92,2.18 v 0 q 0,1.35 -0.92,2.28 -0.93,0.92 -2.33,0.92 z m 31.75,5.1 h 4.8 V 0 h -4.6 v -4.2 q -1.6,2.2 -4.05,3.35 -2.45,1.15 -5.4,1.15 v 0 q -3.85,0 -6.9,-1.7 -3.05,-1.7 -4.78,-4.78 -1.72,-3.07 -1.72,-7.07 v 0 q 0,-4 1.72,-7.05 1.73,-3.05 4.78,-4.75 3.05,-1.7 6.9,-1.7 v 0 q 2.85,0 5.25,1.07 2.4,1.08 4,3.18 v 0 z m -8.85,22.6 q 2.5,0 4.55,-1.18 2.05,-1.17 3.2,-3.3 1.15,-2.12 1.15,-4.87 v 0 q 0,-2.75 -1.15,-4.88 -1.15,-2.12 -3.2,-3.27 -2.05,-1.15 -4.55,-1.15 v 0 q -2.55,0 -4.58,1.15 -2.02,1.15 -3.2,3.27 -1.17,2.13 -1.17,4.88 v 0 q 0,2.75 1.17,4.87 1.18,2.13 3.2,3.3 2.03,1.18 4.58,1.18 z"
                                 opacity="1"
                                 fill="#000000"
                                 class="wordmark-text-0"
                                 data-fill-palette-color="primary"
                                 id="text-0" />
                            </svg>
                          </g>
                        </svg>
                      </g>
                    </svg>
                  </g>
                </svg>
              </g>
              <g
                 id="g7">
                <svg
                   viewBox="0 0 139.75213 113.46754"
                   height="113.46754"
                   width="139.75214"
                   version="1.1"
                   id="svg6">
                  <g
                     id="g6">
                    <svg
                       version="1.1"
                       x="0"
                       y="0"
                       viewBox="3.188 11.92 94.061 76.37"
                       enable-background="new 0 0 100 100"
                       xml:space="preserve"
                       height="113.46754"
                       width="139.75214"
                       class="icon-icon-0"
                       data-fill-palette-color="accent"
                       id="icon-0"><g
                         fill="#241f1f"
                         data-fill-palette-color="accent"
                         id="g5"><path
                           fill="#000000"
                           d="m 67.022,66.238 c 4.007,-0.975 9.697,-2.172 15.654,-2.81 0.27,-1.359 0.416,-2.747 0.416,-4.161 0,-0.529 -0.022,-1.056 -0.061,-1.578 v -7.557 c -2.79,6.591 -8.504,12.231 -16.009,16.106 z"
                           data-fill-palette-color="accent"
                           id="path3" /><path
                           fill="#000000"
                           d="m 43.141,69.965 c 22.065,0 39.952,-12.994 39.952,-29.023 C 83.093,24.913 65.206,11.92 43.141,11.92 21.076,11.92 3.189,24.914 3.189,40.942 3.188,56.971 21.076,69.965 43.141,69.965 Z M 9.82,40.94 c 0,-4.666 5.207,-8.448 11.63,-8.448 6.423,0 11.63,3.783 11.63,8.448 0,4.666 -5.207,8.449 -11.63,8.449 -6.424,0 -11.63,-3.783 -11.63,-8.449 z m 66.642,0 c 0,4.666 -5.209,8.449 -11.632,8.449 -6.423,0 -11.63,-3.783 -11.63,-8.449 0,-4.666 5.207,-8.448 11.63,-8.448 6.423,0 11.632,3.783 11.632,8.448 z M 31.509,56.698 c 0,-4.665 5.208,-8.449 11.629,-8.449 6.424,0 11.631,3.784 11.631,8.449 0,4.667 -5.208,8.448 -11.631,8.448 -6.422,0 -11.629,-3.781 -11.629,-8.448 z m 8.667,-15.757 c 0,-1.189 1.328,-2.153 2.965,-2.153 1.637,0 2.965,0.964 2.965,2.153 0,1.189 -1.328,2.154 -2.965,2.154 -1.637,0 -2.965,-0.964 -2.965,-2.154 z M 54.77,25.186 c 0,4.666 -5.208,8.449 -11.631,8.449 -6.422,0 -11.629,-3.783 -11.629,-8.449 0,-4.667 5.208,-8.449 11.629,-8.449 6.423,-10e-4 11.631,3.782 11.631,8.449 z"
                           data-fill-palette-color="accent"
                           id="path4" /><path
                           fill="#000000"
                           d="m 85.484,64.411 c -10.738,0.977 -24.245,4.428 -30.171,6.047 -3.854,0.868 -7.939,1.339 -12.173,1.339 -18.725,0 -34.613,-9.143 -39.907,-21.701 v 7.876 c -0.026,0.43 -0.045,0.861 -0.045,1.295 0,16.03 17.887,29.023 39.952,29.023 7.255,0 14.053,-1.412 19.916,-3.867 22.008,-5.756 34.193,-3.097 34.193,-3.097 V 64.955 C 94.481,64.033 90.256,63.978 85.484,64.411 Z"
                           data-fill-palette-color="accent"
                           id="path5" /></g></svg>
                  </g>
                </svg>
              </g>
            </svg>
          </g>
          <defs
             id="defs8" />
        </svg>
        <rect
           width="395.51999"
           height="80.296844"
           fill="none"
           stroke="none"
           visibility="hidden"
           id="rect8"
           x="0"
           y="0" />
      </g>
    </svg>
  </g>
</svg>
