<svg xmlns="http://www.w3.org/2000/svg" version="1.1" xmlns:xlink="http://www.w3.org/1999/xlink" xmlns:svgjs="http://svgjs.dev/svgjs" width="2000" height="404" viewBox="0 0 2000 404"><g transform="matrix(1,0,0,1,-1.2121212121212466,0.7495374227181912)"><svg viewBox="0 0 396 80" data-background-color="#ffffff" preserveAspectRatio="xMidYMid meet" height="404" width="2000" xmlns="http://www.w3.org/2000/svg" xmlns:xlink="http://www.w3.org/1999/xlink"><g id="tight-bounds" transform="matrix(1,0,0,1,0.2400000000000091,-0.1484232520234059)"><svg viewBox="0 0 395.52 80.29684650404683" height="80.29684650404683" width="395.52"><g><svg viewBox="0 0 558.9096318037169 113.46753872010616" height="80.29684650404683" width="395.52"><g transform="matrix(1,0,0,1,163.38963180371698,6.670438238619781)"><svg viewBox="0 0 395.52 100.1266622428666" height="100.1266622428666" width="395.52"><g id="textblocktransform"><svg viewBox="0 0 395.52 100.1266622428666" height="100.1266622428666" width="395.52" id="textblock"><g><svg viewBox="0 0 395.52 100.1266622428666" height="100.1266622428666" width="395.52"><g transform="matrix(1,0,0,1,0,0)"><svg width="395.52" viewBox="4.95 -37.85 150.69 38.15" height="100.1266622428666" data-palette-color="#001f3f"><path d="M19.6-30.95Q14.8-30.95 12.38-28.78 9.95-26.6 9.95-22.45L9.95-22.45 9.95-18.45 25.95-18.45 25.95-14.15 9.95-14.15 9.95 0 4.95 0 4.95-22.5Q4.95-28.55 8.78-31.98 12.6-35.4 19.45-35.4L19.45-35.4Q22.45-35.4 25.05-34.73 27.65-34.05 29.55-32.75L29.55-32.75 27.9-28.6Q24.55-30.95 19.6-30.95L19.6-30.95ZM33.85 0L33.85-26.5 38.65-26.5 38.65 0 33.85 0ZM36.25-31.6Q34.85-31.6 33.92-32.5 33-33.4 33-34.7L33-34.7Q33-36 33.92-36.93 34.85-37.85 36.25-37.85L36.25-37.85Q37.65-37.85 38.57-36.98 39.5-36.1 39.5-34.8L39.5-34.8Q39.5-33.45 38.57-32.52 37.65-31.6 36.25-31.6L36.25-31.6ZM55.85 0.3Q52 0.3 49.9-1.83 47.8-3.95 47.8-7.8L47.8-7.8 47.8-37.1 52.6-37.1 52.6-8.2Q52.6-6.05 53.62-4.9 54.65-3.75 56.7-3.75L56.7-3.75Q57.95-3.75 59.05-4.25L59.05-4.25 59.3-0.3Q57.65 0.3 55.85 0.3L55.85 0.3ZM96.99-26.75Q101.99-26.75 104.92-23.85 107.84-20.95 107.84-15.25L107.84-15.25 107.84 0 103.04 0 103.04-14.7Q103.04-18.55 101.27-20.5 99.49-22.45 96.19-22.45L96.19-22.45Q92.54-22.45 90.39-20.18 88.24-17.9 88.24-13.65L88.24-13.65 88.24 0 83.44 0 83.44-14.7Q83.44-18.55 81.67-20.5 79.89-22.45 76.59-22.45L76.59-22.45Q72.94-22.45 70.79-20.18 68.64-17.9 68.64-13.65L68.64-13.65 68.64 0 63.84 0 63.84-26.5 68.44-26.5 68.44-22.55Q69.89-24.6 72.24-25.68 74.59-26.75 77.59-26.75L77.59-26.75Q80.69-26.75 83.09-25.5 85.49-24.25 86.79-21.85L86.79-21.85Q88.29-24.15 90.97-25.45 93.64-26.75 96.99-26.75L96.99-26.75ZM116.69 0L116.69-26.5 121.49-26.5 121.49 0 116.69 0ZM119.09-31.6Q117.69-31.6 116.77-32.5 115.84-33.4 115.84-34.7L115.84-34.7Q115.84-36 116.77-36.93 117.69-37.85 119.09-37.85L119.09-37.85Q120.49-37.85 121.42-36.98 122.34-36.1 122.34-34.8L122.34-34.8Q122.34-33.45 121.42-32.52 120.49-31.6 119.09-31.6L119.09-31.6ZM150.84-26.5L155.64-26.5 155.64 0 151.04 0 151.04-4.2Q149.44-2 146.99-0.85 144.54 0.3 141.59 0.3L141.59 0.3Q137.74 0.3 134.69-1.4 131.64-3.1 129.91-6.18 128.19-9.25 128.19-13.25L128.19-13.25Q128.19-17.25 129.91-20.3 131.64-23.35 134.69-25.05 137.74-26.75 141.59-26.75L141.59-26.75Q144.44-26.75 146.84-25.68 149.24-24.6 150.84-22.5L150.84-22.5 150.84-26.5ZM141.99-3.9Q144.49-3.9 146.54-5.08 148.59-6.25 149.74-8.38 150.89-10.5 150.89-13.25L150.89-13.25Q150.89-16 149.74-18.13 148.59-20.25 146.54-21.4 144.49-22.55 141.99-22.55L141.99-22.55Q139.44-22.55 137.41-21.4 135.39-20.25 134.21-18.13 133.04-16 133.04-13.25L133.04-13.25Q133.04-10.5 134.21-8.38 135.39-6.25 137.41-5.08 139.44-3.9 141.99-3.9L141.99-3.9Z" opacity="1" transform="matrix(1,0,0,1,0,0)" fill="#ffffff" class="wordmark-text-0" data-fill-palette-color="primary" id="text-0"></path></svg></g></svg></g></svg></g></svg></g><g><svg viewBox="0 0 139.75212988807002 113.46753872010616" height="113.46753872010616" width="139.75212988807002"><g><svg xmlns="http://www.w3.org/2000/svg" xmlns:xlink="http://www.w3.org/1999/xlink" version="1.1" x="0" y="0" viewBox="3.187999999999997 11.920000000000009 94.06099999999999 76.36999999999998" enable-background="new 0 0 100 100" xml:space="preserve" height="113.46753872010616" width="139.75212988807002" class="icon-icon-0" data-fill-palette-color="accent" id="icon-0"><g fill="#241f1f" data-fill-palette-color="accent"><path fill="#ffffff" d="M67.022 66.238c4.007-0.975 9.697-2.172 15.654-2.81 0.27-1.359 0.416-2.747 0.416-4.161 0-0.529-0.022-1.056-0.061-1.578v-7.557C80.241 56.723 74.527 62.363 67.022 66.238z" data-fill-palette-color="accent"></path><path fill="#ffffff" d="M43.141 69.965c22.065 0 39.952-12.994 39.952-29.023 0-16.029-17.887-29.022-39.952-29.022-22.065 0-39.952 12.994-39.952 29.022C3.188 56.971 21.076 69.965 43.141 69.965zM9.82 40.94c0-4.666 5.207-8.448 11.63-8.448 6.423 0 11.63 3.783 11.63 8.448 0 4.666-5.207 8.449-11.63 8.449C15.026 49.389 9.82 45.606 9.82 40.94zM76.462 40.94c0 4.666-5.209 8.449-11.632 8.449S53.2 45.606 53.2 40.94c0-4.666 5.207-8.448 11.63-8.448S76.462 36.275 76.462 40.94zM31.509 56.698c0-4.665 5.208-8.449 11.629-8.449 6.424 0 11.631 3.784 11.631 8.449 0 4.667-5.208 8.448-11.631 8.448C36.716 65.146 31.509 61.365 31.509 56.698zM40.176 40.941c0-1.189 1.328-2.153 2.965-2.153s2.965 0.964 2.965 2.153c0 1.189-1.328 2.154-2.965 2.154S40.176 42.131 40.176 40.941zM54.77 25.186c0 4.666-5.208 8.449-11.631 8.449-6.422 0-11.629-3.783-11.629-8.449 0-4.667 5.208-8.449 11.629-8.449C49.562 16.736 54.77 20.519 54.77 25.186z" data-fill-palette-color="accent"></path><path fill="#ffffff" d="M85.484 64.411c-10.738 0.977-24.245 4.428-30.171 6.047-3.854 0.868-7.939 1.339-12.173 1.339-18.725 0-34.613-9.143-39.907-21.701v7.876c-0.026 0.43-0.045 0.861-0.045 1.295 0 16.03 17.887 29.023 39.952 29.023 7.255 0 14.053-1.412 19.916-3.867 22.008-5.756 34.193-3.097 34.193-3.097V64.955C94.481 64.033 90.256 63.978 85.484 64.411z" data-fill-palette-color="accent"></path></g></svg></g></svg></g></svg></g><defs></defs></svg><rect width="395.52" height="80.29684650404683" fill="none" stroke="none" visibility="hidden"></rect></g></svg></g></svg>